<svg width="138" height="32" xmlns="http://www.w3.org/2000/svg">
 <defs>
  <linearGradient x1="50%" y1="0%" x2="50%" y2="100%" id="a">
   <stop stop-color="#00BFFB" offset="0%"/>
   <stop stop-color="#0270D7" offset="100%"/>
  </linearGradient>
  <linearGradient x1="50%" y1="0%" x2="50%" y2="100%" id="b">
   <stop stop-color="#1F232A" stop-opacity="0.48" offset="0%"/>
   <stop stop-color="#1F2329" stop-opacity="0" offset="100%"/>
  </linearGradient>
  <linearGradient x1="87.665%" y1="103.739%" x2="-3.169%" y2="38.807%" id="c">
   <stop stop-color="#FFF" stop-opacity="0" offset="0%"/>
   <stop stop-color="#FFF" stop-opacity="0.64" offset="100%"/>
  </linearGradient>
  <linearGradient x1="-14.104%" y1="111.262%" x2="109.871%" y2="26.355%" id="d">
   <stop stop-color="#0270D7" offset="0%"/>
   <stop stop-color="#0270D7" stop-opacity="0" offset="100%"/>
  </linearGradient>
 </defs>
 <g>
  <title>background</title>
  <rect x="-1" y="-1" width="140" height="34" id="canvas_background" fill="none"/>
 </g>
 <g>
  <title>Layer 1</title>
  <g fill="none" fill-rule="evenodd" id="svg_1">
   <path fill="url(#a)" transform="rotate(90 14.000000000000002,16) " d="m6,2l-8,13.999l8,14.001l16,0l8,-14.001l-8,-13.999l-16,0z" id="svg_2"/>
   <path fill="url(#b)" d="m14,0l0,32l-14,-8l0,-16l14,-8z" id="svg_3"/>
   <path fill="url(#c)" d="m28,24l-28,-16l14.001,-8l13.999,8l0,16z" id="svg_4"/>
   <path fill-opacity="0.48" fill="url(#d)" d="m28,8l-28,15.978l0,-15.978l14.001,-8l13.999,8z" id="svg_5"/>
  </g>
  <text fill="#000000" stroke-width="0" x="78.62602" y="23.763325" id="svg_6" font-size="24" font-family="Helvetica, Arial, sans-serif" text-anchor="start" xml:space="preserve" transform="matrix(1.0026044845581055,0,0,1,-0.4548081159591675,0) " stroke="#000"/>
  <text style="cursor: move;" fill="#ffffff" stroke="#ffffff" stroke-width="0" x="34.37133" y="24.013351" id="svg_10" font-size="24" font-family="Helvetica, Arial, sans-serif" text-anchor="start" xml:space="preserve">云层科技</text>
 </g>
</svg>